#!OML:ASF F:\VICON\USERDATA\INSTALL\rory3\rory3.ASF
:FULLY-SPECIFIED
:DEGREES
336
root -0.231219 17.7591 32.8195 -0.0469808 -6.17479 -8.63351
lowerback 9.4444 3.54598 7.76071
upperback -0.144166 5.69872 2.38253
thorax -4.93907 2.64301 -2.58791
lowerneck -17.6695 -2.77549 -0.910692
upperneck 20.9351 -3.76922 0.68194
head 9.56924 -1.74333 -0.113845
rclavicle -5.60402e-014 -1.12313e-014
rhumerus -23.1992 -7.61421 -82.9375
rradius 29.1933
rwrist 0.373796
rhand -18.7024 24.0155
rfingers 7.12502
rthumb 7.59242 -5.82823
lclavicle -5.60402e-014 -1.12313e-014
lhumerus -36.764 3.24476 83.6712
lradius 21.8741
lwrist 4.17209
lhand -25.6386 22.3758
lfingers 7.12502
lthumb 0.89476 52.3537
rfemur 5.4935 4.22622 35.5313
rtibia 22.752
rfoot -20.8034 -1.69661
rtoes 8.60545
lfemur -25.9949 -7.06729 -7.58428
ltibia 17.5769
lfoot -6.52221 12.4452
ltoes -4.20442
337
root -0.220233 17.7326 33.0029 0.163493 -6.3281 -8.80111
lowerback 9.35702 3.5882 7.93189
upperback -0.224506 5.77181 2.4141
thorax -4.95526 2.67251 -2.65324
lowerneck -17.2135 -2.60511 -0.845173
upperneck 20.5145 -3.54574 0.679802
head 9.33489 -1.64016 -0.0857112
rclavicle 1.87852e-014 3.09856e-014
rhumerus -23.0305 -7.44387 -82.9555
rradius 29.2769
rwrist 0.521645
rhand -18.5085 23.4541
rfingers 7.12502
rthumb 7.77955 -6.38274
lclavicle 1.87852e-014 3.09856e-014
lhumerus -37.003 3.57739 83.5419
lradius 21.7116
lwrist 3.86891
lhand -24.3577 24.8856
lfingers 7.12502
lthumb 2.13186 54.8547
rfemur 6.14077 4.35202 35.6622
rtibia 22.4719
rfoot -20.7766 -1.63816
rtoes 7.78045
lfemur -25.9491 -8.28429 -6.77174
ltibia 15.2321
lfoot -7.30536 13.8195
ltoes -0.858499
338
root -0.203494 17.7061 33.1917 0.248682 -6.45323 -8.86423
lowerback 9.24973 3.59557 8.14153
upperback -0.195843 5.78769 2.36692
thorax -4.83803 2.68024 -2.80825
lowerneck -17.1305 -2.48171 -0.892458
upperneck 20.3641 -3.42909 0.975847
head 9.27329 -1.55749 0.0411226
rclavicle -7.54714e-014 1.84e-014
rhumerus -22.678 -7.66381 -82.9708
rradius 28.9093
rwrist 0.722153
rhand -18.1727 24.0853
rfingers 7.12502
rthumb 8.10367 -5.7393
lclavicle -7.54714e-014 1.84e-014
lhumerus -37.2264 4.01553 83.3162
lradius 21.5301
lwrist 3.36075
lhand -25.0255 24.0381
lfingers 7.12502
lthumb 1.48691 54.0126
rfemur 6.81774 4.48415 35.6689
rtibia 22.3626
rfoot -20.867 -1.58763
rtoes 6.08774
lfemur -25.7366 -9.31154 -6.23075
ltibia 13.2278
lfoot -8.52382 15.0638
ltoes 1.43794
339
root -0.184999 17.6856 33.3823 0.341488 -6.50477 -8.77875
lowerback 9.13775 3.60591 8.1522
upperback -0.236875 5.79067 2.31051
thorax -4.8111 2.68127 -2.8658
lowerneck -17.4229 -2.58603 -1.05092
upperneck 20.6984 -3.61103 1.29406
head 9.45548 -1.61391 0.146944
rclavicle -1.36121e-015 2.52457e-014
rhumerus -22.4357 -7.50937 -83.0296
rradius 28.8737
rwrist 0.79972
rhand -18.5448 23.3898
rfingers 7.12502
rthumb 7.74454 -6.44838
lclavicle -1.36121e-015 2.52457e-014
lhumerus -37.5469 4.08892 83.2585
lradius 21.4369
lwrist 2.97224
lhand -25.7794 23.1024
lfingers 7.12502
lthumb 0.758766 53.0808
rfemur 7.37036 4.47912 35.4543
rtibia 22.3905
rfoot -20.9389 -1.27007
rtoes 5.40637
lfemur -25.5906 -10.5318 -5.84818
ltibia 11.753
lfoot -8.94579 16.5386
ltoes 0.670437
340
root -0.16938 17.665 33.5652 0.478997 -6.52826 -8.66046
lowerback 9.12713 3.6232 8.07195
upperback -0.369806 5.81109 2.25349
thorax -4.94539 2.68382 -2.8887
lowerneck -17.3437 -2.70136 -0.683021
upperneck 20.5394 -3.75865 0.821469
head 9.36895 -1.70964 -0.093698
rclavicle 3.88143e-014 1.57413e-014
rhumerus -22.3523 -7.50273 -82.9808
rradius 28.708
rwrist 0.891776
rhand -18.6419 23.9756
rfingers 7.12502
rthumb 7.65079 -5.86604
lclavicle 3.88143e-014 1.57413e-014
lhumerus -37.8262 4.14299 83.2263
lradius 21.6202
lwrist 2.19065
lhand -24.622 25.5876
lfingers 7.12502
lthumb 1.87661 55.5591
rfemur 7.84708 4.56666 35.2335
rtibia 22.4433
rfoot -20.9332 -1.02456
rtoes 5.1343
lfemur -25.6737 -10.4853 -5.97972
ltibia 11.0307
lfoot -8.49678 16.5786
ltoes -1.52201
341
root -0.160241 17.6466 33.7537 0.55672 -6.57228 -8.6267
lowerback 9.12766 3.63274 8.03707
upperback -0.427733 5.82313 2.22897
thorax -5.00653 2.68637 -2.89915
lowerneck -17.3999 -2.72013 -0.39731
upperneck 20.4492 -3.75191 0.356389
head 9.33133 -1.73764 -0.299667
rclavicle -5.14759e-014 -2.75565e-014
rhumerus -22.1683 -7.76321 -82.9088
rradius 28.4814
rwrist 1.28044
rhand -18.6191 24.6877
rfingers 7.12502
rthumb 7.67283 -5.15307
lclavicle -5.14759e-014 -2.75565e-014
lhumerus -37.9669 4.59549 82.9812
lradius 20.8439
lwrist 2.36365
lhand -24.9633 23.4875
lfingers 7.12502
lthumb 1.54698 53.4616
rfemur 8.40896 4.89826 35.2001
rtibia 22.5081
rfoot -20.939 -1.12517
rtoes 3.79219
lfemur -25.8691 -9.11082 -6.58924
ltibia 11.2465
lfoot -8.73996 14.8581
ltoes -0.557094
342
root -0.150122 17.6253 33.9484 0.443907 -6.53356 -8.89234
lowerback 9.23268 3.58732 8.32211
upperback -0.392925 5.80707 2.32787
thorax -5.01429 2.67199 -2.95678
lowerneck -17.5078 -2.69666 -0.752212
upperneck 20.6175 -3.68343 0.612679
head 9.4226 -1.70238 -0.147333
rclavicle -4.13255e-014 -1.15171e-014
rhumerus -22.0719 -8.11827 -82.7783
rradius 28.427
rwrist 1.75249
rhand -18.378 24.6174
rfingers 7.12502
rthumb 7.90552 -5.21482
lclavicle -4.13255e-014 -1.15171e-014
lhumerus -38.025 5.19044 82.7621
lradius 20.1277
lwrist 1.93742
lhand -24.1192 24.9205
lfingers 7.12502
lthumb 2.3622 54.8871
rfemur 9.17046 5.22616 35.5272
rtibia 22.673
rfoot -20.919 -1.22052
rtoes 3.25202
lfemur -26.083 -7.30148 -7.15295
ltibia 12.2442
lfoot -7.59454 12.5749
ltoes -0.922434
343
root -0.139287 17.5991 34.1389 0.25468 -6.44588 -9.22078
lowerback 9.46024 3.46238 8.58514
upperback -0.349322 5.69973 2.47934
thorax -5.09954 2.6103 -2.94675
lowerneck -17.6351 -2.69755 -0.978374
upperneck 20.7893 -3.67418 0.823878
head 9.5154 -1.68975 -0.0392846
rclavicle 3.35604e-015 3.26504e-014
rhumerus -22.027 -8.28627 -82.737
rradius 28.5267
rwrist 2.1637
rhand -18.0274 23.8625
rfingers 7.12502
rthumb 8.24392 -5.95667
lclavicle 3.35604e-015 3.26504e-014
lhumerus -38.1232 5.64745 82.598
lradius 19.6166
lwrist 1.71431
lhand -24.1783 24.9753
lfingers 7.12502
lthumb 2.30514 54.9426
rfemur 9.89385 5.33613 35.8905
rtibia 23.0074
rfoot -20.7357 -1.23575
rtoes 2.60236
lfemur -26.3455 -5.58169 -7.64095
ltibia 13.5521
lfoot -6.87176 10.4947
ltoes -1.15384
344
root -0.129682 17.5727 34.3184 -0.0470786 -6.50023 -9.29639
lowerback 9.97398 3.41835 8.59855
upperback -0.324754 5.70126 2.52218
thorax -5.36638 2.59827 -2.94885
lowerneck -17.8212 -2.67542 -0.727621
upperneck 20.9654 -3.67835 0.665233
head 9.60304 -1.68754 -0.140187
rclavicle -2.95001e-014 -8.69683e-016
rhumerus -22.1384 -8.31391 -82.7552
rradius 28.8767
rwrist 2.17304
rhand -18.1327 23.6159
rfingers 7.12502
rthumb 8.14229 -6.2072
lclavicle -2.95001e-014 -8.69683e-016
lhumerus -38.201 5.57672 82.6434
lradius 19.2789
lwrist 1.45164
lhand -25.3686 25.1908
lfingers 7.12502
lthumb 1.15552 55.1674
rfemur 10.6404 5.7634 36.1146
rtibia 23.4261
rfoot -20.2201 -1.38906
rtoes 1.82929
lfemur -26.535 -4.43604 -8.15444
ltibia 15.0513
lfoot -6.7502 9.32916
ltoes -1.95491
345
root -0.114386 17.5565 34.5081 -0.344837 -6.59189 -8.98511
lowerback 10.2112 3.46719 8.3007
upperback -0.169405 5.74121 2.45115
thorax -5.35033 2.6295 -2.87739
lowerneck -17.9027 -2.63403 -0.630325
upperneck 20.7641 -3.64771 0.679394
head 9.54542 -1.66496 -0.146684
rclavicle -1.17935e-014 -2.23384e-014
rhumerus -22.1086 -8.48104 -82.6877
rradius 29.0175
rwrist 2.07035
rhand -18.3858 24.0931
rfingers 7.12502
rthumb 7.89797 -5.73933
lclavicle -1.17935e-014 -2.23384e-014
lhumerus -38.1332 5.8035 82.5805
lradius 19.0121
lwrist 0.781962
lhand -26.0332 26.3042
lfingers 7.12502
lthumb 0.513726 56.2834
rfemur 11.3032 6.02157 35.8089
rtibia 23.9919
rfoot -19.8176 -1.28361
rtoes 0.82628
lfemur -26.5514 -4.16536 -8.80877
ltibia 16.4002
lfoot -6.60449 8.90683
ltoes -3.23246
346
root -0.0972882 17.5484 34.7209 -0.590187 -6.65914 -8.82592
lowerback 10.1363 3.49398 8.1504
upperback -0.00440777 5.73858 2.45626
thorax -5.14747 2.64557 -2.77666
lowerneck -17.8199 -2.68057 -0.759117
upperneck 20.405 -3.67051 0.682811
head 9.40719 -1.68876 -0.123114
rclavicle 1.91423e-014 2.04997e-014
rhumerus -21.9303 -8.59436 -82.5855
rradius 28.7945
rwrist 1.92257
rhand -18.2564 23.8495
rfingers 7.12502
rthumb 8.02288 -5.97825
lclavicle 1.91423e-014 2.04997e-014
lhumerus -38.1765 6.54147 82.2605
lradius 18.6912
lwrist 0.498903
lhand -25.5286 25.9839
lfingers 7.12502
lthumb 1.00104 55.9613
rfemur 11.9404 6.04033 35.573
rtibia 24.6569
rfoot -19.4473 -1.13521
rtoes -0.713781
lfemur -26.4232 -4.05838 -9.25441
ltibia 17.5544
lfoot -5.48825 8.0824
ltoes -3.51424
347
root -0.0780792 17.5599 34.9434 -0.845173 -6.74784 -8.34179
lowerback 9.87087 3.53693 7.75633
upperback 0.157388 5.7047 2.34159
thorax -4.85476 2.65479 -2.64895
lowerneck -17.6027 -2.68971 -0.908513
upperneck 20.2455 -3.6593 0.765067
head 9.31648 -1.68832 -0.0643153
rclavicle 3.76448e-015 2.5345e-014
rhumerus -21.8179 -8.94496 -82.5098
rradius 28.5037
rwrist 1.94916
rhand -18.1029 23.5464
rfingers 7.12502
rthumb 8.17104 -6.27561
lclavicle 3.76448e-015 2.5345e-014
lhumerus -38.2539 6.72101 82.2101
lradius 18.4603
lwrist 1.07946
lhand -24.6669 29.0737
lfingers 7.12502
lthumb 1.83324 59.0455
rfemur 12.5232 5.92644 34.8921
rtibia 25.4235
rfoot -18.9704 -0.749815
rtoes -1.74025
lfemur -26.2151 -3.99895 -10.036
ltibia 18.5927
lfoot -3.63174 6.76219
ltoes -0.323745
348
root -0.057536 17.5803 35.1594 -1.05969 -6.95438 -7.65187
lowerback 9.82165 3.64154 7.14454
upperback 0.170081 5.75991 2.15327
thorax -4.84645 2.69589 -2.51255
lowerneck -17.536 -2.68278 -1.10262
upperneck 20.4133 -3.64727 0.968641
head 9.371 -1.67385 0.038866
rclavicle -1.01504e-014 1.717e-014
rhumerus -22.1411 -9.32356 -82.4057
rradius 28.6663
rwrist 1.99647
rhand -18.3938 24.02
rfingers 7.12502
rthumb 7.8903 -5.81272
lclavicle -1.01504e-014 1.717e-014
lhumerus -38.3615 6.91955 82.0778
lradius 17.9849
lwrist 1.10372
lhand -26.0538 24.2993
lfingers 7.12502
lthumb 0.493744 54.2784
rfemur 12.9076 5.91776 33.9433
rtibia 26.2571
rfoot -18.1987 -0.118441
rtoes -1.82582
lfemur -26.0693 -3.91004 -11.0159
ltibia 19.6958
lfoot -1.65103 5.50739
ltoes 1.53393
349
root -0.0371427 17.5992 35.3707 -1.11548 -7.12455 -6.99959
lowerback 9.81698 3.74085 6.56509
upperback 0.0821631 5.82054 1.92386
thorax -4.9625 2.73162 -2.44478
lowerneck -17.6666 -2.80666 -1.16345
upperneck 20.7595 -3.84396 1.11612
head 9.52298 -1.74979 0.0692325
rclavicle -1.7879e-014 -7.62836e-015
rhumerus -22.4938 -9.92462 -82.3533
rradius 28.8217
rwrist 2.28298
rhand -18.6963 24.1368
rfingers 7.12502
rthumb 7.59832 -5.70666
lclavicle -1.7879e-014 -7.62836e-015
lhumerus -38.3776 7.24427 81.7633
lradius 17.4109
lwrist 0.585785
lhand -27.4233 14.3597
lfingers 7.12502
lthumb -0.82895 44.3378
rfemur 12.9625 5.98127 33.0637
rtibia 27.2523
rfoot -17.2556 0.351986
rtoes -3.47125
lfemur -26.0523 -3.80615 -11.9612
ltibia 20.8367
lfoot -0.647015 4.57914
ltoes 0.299647
